<svg width="100" height="100" viewBox="0 0 100 100" xmlns="http://www.w3.org/2000/svg">
  <defs>
    <linearGradient id="robotGradient" x1="0%" y1="0%" x2="100%" y2="100%">
      <stop offset="0%" style="stop-color:#4FC3F7;stop-opacity:1" />
      <stop offset="100%" style="stop-color:#29B6F6;stop-opacity:1" />
    </linearGradient>
    <linearGradient id="bodyGradient" x1="0%" y1="0%" x2="100%" y2="100%">
      <stop offset="0%" style="stop-color:#42A5F5;stop-opacity:1" />
      <stop offset="100%" style="stop-color:#1E88E5;stop-opacity:1" />
    </linearGradient>
  </defs>
  
  <!-- Robot Background Circle -->
  <circle cx="50" cy="50" r="45" fill="#E8EAF6" stroke="#3F51B5" stroke-width="2"/>
  
  <!-- Robot Antenna -->
  <line x1="50" y1="25" x2="50" y2="15" stroke="#2C5282" stroke-width="3" stroke-linecap="round"/>
  <circle cx="50" cy="12" r="4" fill="url(#robotGradient)"/>
  
  <!-- Robot Head -->
  <rect x="30" y="25" width="40" height="25" rx="8" ry="8" fill="url(#robotGradient)" stroke="#2C5282" stroke-width="2"/>
  
  <!-- Robot Eyes -->
  <circle cx="40" cy="35" r="4" fill="#2C5282"/>
  <circle cx="60" cy="35" r="4" fill="#2C5282"/>
  
  <!-- Robot Smile -->
  <path d="M 42 42 Q 50 48 58 42" stroke="#2C5282" stroke-width="2" fill="none" stroke-linecap="round"/>
  
  <!-- Robot Body -->
  <rect x="25" y="50" width="50" height="30" rx="10" ry="10" fill="url(#bodyGradient)" stroke="#2C5282" stroke-width="2"/>
  
  <!-- Robot Arms -->
  <rect x="15" y="55" width="10" height="15" rx="5" ry="5" fill="url(#robotGradient)" stroke="#2C5282" stroke-width="2"/>
  <rect x="75" y="55" width="10" height="15" rx="5" ry="5" fill="url(#robotGradient)" stroke="#2C5282" stroke-width="2"/>
  
  <!-- Robot Control Panel -->
  <circle cx="40" cy="62" r="3" fill="#FFD54F"/>
  <rect x="48" y="60" width="8" height="2" rx="1" fill="#2C5282"/>
  <rect x="48" y="64" width="6" height="2" rx="1" fill="#2C5282"/>
  
  <!-- Robot Paper/Document -->
  <rect x="35" y="80" width="30" height="15" rx="2" fill="white" stroke="#2C5282" stroke-width="2"/>
  <line x1="40" y1="85" x2="60" y2="85" stroke="#2C5282" stroke-width="1.5"/>
  <line x1="40" y1="88" x2="55" y2="88" stroke="#2C5282" stroke-width="1.5"/>
  <line x1="40" y1="91" x2="58" y2="91" stroke="#2C5282" stroke-width="1.5"/>
</svg>
