<svg xmlns="http://www.w3.org/2000/svg" viewBox="0 0 300 250" width="300" height="250">
  <defs>
    <linearGradient id="labelGradient" x1="0%" y1="0%" x2="100%" y2="100%">
      <stop offset="0%" style="stop-color:#ffffff;stop-opacity:1" />
      <stop offset="100%" style="stop-color:#e6f3ff;stop-opacity:1" />
    </linearGradient>
    
    <filter id="dropShadow" x="-20%" y="-20%" width="140%" height="140%">
      <feDropShadow dx="3" dy="6" stdDeviation="4" flood-opacity="0.15"/>
    </filter>
  </defs>
  
  <!-- Fondo con gradiente -->
  <rect width="300" height="250" fill="url(#labelGradient)"/>
  
  <!-- Rollo principal de etiquetas -->
  <g transform="translate(150, 125)">
    <!-- Núcleo del rollo -->
    <circle cx="0" cy="0" r="35" fill="#1a1a1a" filter="url(#dropShadow)"/>
    <circle cx="0" cy="0" r="25" fill="#333333"/>
    <circle cx="0" cy="0" r="15" fill="#555555"/>
    
    <!-- Capas de etiquetas enrolladas -->
    <circle cx="0" cy="0" r="50" fill="none" stroke="#0066cc" stroke-width="3" opacity="0.8"/>
    <circle cx="0" cy="0" r="45" fill="none" stroke="#0066cc" stroke-width="2" opacity="0.6"/>
    <circle cx="0" cy="0" r="40" fill="none" stroke="#0066cc" stroke-width="2" opacity="0.4"/>
    
    <!-- Líneas de separación de etiquetas -->
    <path d="M -50 0 Q -35 -5 -20 0 Q 20 5 50 0" stroke="#003366" stroke-width="1" fill="none" opacity="0.7"/>
    <path d="M -48 -8 Q -33 -13 -18 -8 Q 18 -3 48 -8" stroke="#003366" stroke-width="1" fill="none" opacity="0.5"/>
    <path d="M -48 8 Q -33 13 -18 8 Q 18 3 48 8" stroke="#003366" stroke-width="1" fill="none" opacity="0.5"/>
    <path d="M -46 -16 Q -31 -21 -16 -16 Q 16 -11 46 -16" stroke="#003366" stroke-width="1" fill="none" opacity="0.3"/>
    <path d="M -46 16 Q -31 21 -16 16 Q 16 11 46 16" stroke="#003366" stroke-width="1" fill="none" opacity="0.3"/>
  </g>
  
  <!-- Etiquetas individuales desprendiéndose -->
  <g transform="translate(50, 80)">
    <!-- Etiqueta 1 -->
    <rect x="0" y="0" width="60" height="35" fill="#ffffff" stroke="#0066cc" stroke-width="2" rx="3" filter="url(#dropShadow)"/>
    <rect x="5" y="5" width="50" height="4" fill="#0066cc" opacity="0.8"/>
    <rect x="5" y="12" width="30" height="2" fill="#003366" opacity="0.6"/>
    <rect x="5" y="16" width="40" height="2" fill="#003366" opacity="0.6"/>
    <rect x="5" y="20" width="35" height="2" fill="#003366" opacity="0.6"/>
    <!-- Código de barras -->
    <g transform="translate(5, 24)">
      <rect x="0" y="0" width="1" height="8" fill="#000000"/>
      <rect x="2" y="0" width="2" height="8" fill="#000000"/>
      <rect x="6" y="0" width="1" height="8" fill="#000000"/>
      <rect x="9" y="0" width="1" height="8" fill="#000000"/>
      <rect x="12" y="0" width="2" height="8" fill="#000000"/>
      <rect x="16" y="0" width="1" height="8" fill="#000000"/>
      <rect x="19" y="0" width="3" height="8" fill="#000000"/>
      <rect x="24" y="0" width="1" height="8" fill="#000000"/>
      <rect x="27" y="0" width="1" height="8" fill="#000000"/>
      <rect x="30" y="0" width="2" height="8" fill="#000000"/>
    </g>
  </g>
  
  <g transform="translate(75, 140)">
    <!-- Etiqueta 2 -->
    <rect x="0" y="0" width="60" height="35" fill="#ffffff" stroke="#0066cc" stroke-width="2" rx="3" filter="url(#dropShadow)" transform="rotate(15)"/>
    <g transform="rotate(15)">
      <rect x="5" y="5" width="50" height="4" fill="#0066cc" opacity="0.8"/>
      <rect x="5" y="12" width="25" height="2" fill="#003366" opacity="0.6"/>
      <rect x="5" y="16" width="35" height="2" fill="#003366" opacity="0.6"/>
      <rect x="5" y="20" width="30" height="2" fill="#003366" opacity="0.6"/>
      <!-- Código de barras -->
      <g transform="translate(5, 24)">
        <rect x="0" y="0" width="2" height="8" fill="#000000"/>
        <rect x="4" y="0" width="1" height="8" fill="#000000"/>
        <rect x="7" y="0" width="3" height="8" fill="#000000"/>
        <rect x="12" y="0" width="1" height="8" fill="#000000"/>
        <rect x="15" y="0" width="2" height="8" fill="#000000"/>
        <rect x="19" y="0" width="1" height="8" fill="#000000"/>
        <rect x="22" y="0" width="2" height="8" fill="#000000"/>
        <rect x="26" y="0" width="3" height="8" fill="#000000"/>
        <rect x="31" y="0" width="1" height="8" fill="#000000"/>
      </g>
    </g>
  </g>
  
  <!-- Textos informativos -->
  <text x="150" y="220" font-family="Arial, sans-serif" font-size="12" font-weight="bold" fill="#003366" text-anchor="middle">
    Etiquetas Térmicas de Alta Calidad
  </text>
  
  <!-- Elementos decorativos -->
  <g transform="translate(220, 60)">
    <!-- Símbolo de temperatura -->
    <circle cx="15" cy="15" r="12" fill="none" stroke="#0066cc" stroke-width="2"/>
    <text x="15" y="20" font-family="Arial" font-size="12" font-weight="bold" fill="#0066cc" text-anchor="middle">T°</text>
  </g>
  
  <g transform="translate(240, 180)">
    <!-- Símbolo de calidad -->
    <path d="M 10 5 L 15 15 L 5 15 Z" fill="#0066cc"/>
    <circle cx="10" cy="10" r="8" fill="none" stroke="#0066cc" stroke-width="2"/>
  </g>
</svg>
