<svg xmlns="http://www.w3.org/2000/svg" viewBox="0 0 300 250" width="300" height="250">
  <defs>
    <linearGradient id="printerGradient" x1="0%" y1="0%" x2="100%" y2="100%">
      <stop offset="0%" style="stop-color:#ffffff;stop-opacity:1" />
      <stop offset="100%" style="stop-color:#e6f3ff;stop-opacity:1" />
    </linearGradient>
    
    <linearGradient id="printerBody" x1="0%" y1="0%" x2="0%" y2="100%">
      <stop offset="0%" style="stop-color:#333333;stop-opacity:1" />
      <stop offset="50%" style="stop-color:#1a1a1a;stop-opacity:1" />
      <stop offset="100%" style="stop-color:#000000;stop-opacity:1" />
    </linearGradient>
    
    <filter id="printerShadow" x="-20%" y="-20%" width="140%" height="140%">
      <feDropShadow dx="5" dy="8" stdDeviation="6" flood-opacity="0.25"/>
    </filter>
  </defs>
  
  <!-- Fondo -->
  <rect width="300" height="250" fill="url(#printerGradient)"/>
  
  <!-- Impresora principal -->
  <g transform="translate(150, 125)">
    <!-- Base de la impresora -->
    <rect x="-60" y="10" width="120" height="50" fill="url(#printerBody)" rx="8" filter="url(#printerShadow)"/>
    
    <!-- Panel frontal -->
    <rect x="-55" y="15" width="110" height="40" fill="#333333" rx="4"/>
    <rect x="-50" y="20" width="100" height="30" fill="#1a1a1a" rx="2"/>
    
    <!-- Pantalla LCD -->
    <rect x="-35" y="25" width="40" height="20" fill="#0066cc" rx="2"/>
    <rect x="-33" y="27" width="36" height="16" fill="#003366" rx="1"/>
    <text x="-15" y="37" font-family="Arial" font-size="8" fill="#ffffff" text-anchor="middle">READY</text>
    <text x="-15" y="42" font-family="Arial" font-size="6" fill="#ffffff" text-anchor="middle">ZT230</text>
    
    <!-- Botones de control -->
    <circle cx="15" cy="30" r="4" fill="#666666"/>
    <circle cx="15" cy="30" r="3" fill="#ffffff"/>
    <text x="15" y="32" font-family="Arial" font-size="6" fill="#000000" text-anchor="middle">▶</text>
    
    <circle cx="25" cy="30" r="4" fill="#666666"/>
    <circle cx="25" cy="30" r="3" fill="#ffffff"/>
    <rect x="23" y="28" width="4" height="4" fill="#000000"/>
    
    <circle cx="35" cy="30" r="4" fill="#666666"/>
    <circle cx="35" cy="30" r="3" fill="#ffffff"/>
    <text x="35" y="32" font-family="Arial" font-size="6" fill="#000000" text-anchor="middle">⚙</text>
    
    <!-- LED indicadores -->
    <circle cx="15" cy="40" r="2" fill="#00ff00"/>
    <circle cx="25" cy="40" r="2" fill="#0066cc"/>
    <circle cx="35" cy="40" r="2" fill="#ff6600"/>
    
    <!-- Tapa superior -->
    <rect x="-60" y="-20" width="120" height="30" fill="url(#printerBody)" rx="8" filter="url(#printerShadow)"/>
    <rect x="-55" y="-15" width="110" height="20" fill="#444444" rx="4"/>
    
    <!-- Mecanismo interno visible -->
    <rect x="-40" y="-10" width="80" height="15" fill="#666666" rx="2"/>
    <rect x="-35" y="-7" width="70" height="3" fill="#0066cc"/>
    <rect x="-35" y="-3" width="70" height="2" fill="#ffffff"/>
    
    <!-- Rodillo térmico -->
    <ellipse cx="0" cy="-5" rx="25" ry="4" fill="#333333"/>
    <ellipse cx="0" cy="-6" rx="25" ry="3" fill="#555555"/>
    
    <!-- Ranuras de ventilación -->
    <g transform="translate(-45, -8)">
      <rect x="0" y="0" width="2" height="8" fill="#000000" opacity="0.3"/>
      <rect x="4" y="0" width="2" height="8" fill="#000000" opacity="0.3"/>
      <rect x="8" y="0" width="2" height="8" fill="#000000" opacity="0.3"/>
    </g>
    <g transform="translate(35, -8)">
      <rect x="0" y="0" width="2" height="8" fill="#000000" opacity="0.3"/>
      <rect x="4" y="0" width="2" height="8" fill="#000000" opacity="0.3"/>
      <rect x="8" y="0" width="2" height="8" fill="#000000" opacity="0.3"/>
    </g>
  </g>
  
  <!-- Etiqueta saliendo -->
  <g transform="translate(150, 80)">
    <rect x="-20" y="-30" width="40" height="25" fill="#ffffff" stroke="#0066cc" stroke-width="1" rx="2" filter="url(#printerShadow)"/>
    <rect x="-18" y="-28" width="36" height="3" fill="#0066cc" opacity="0.8"/>
    <rect x="-18" y="-23" width="20" height="2" fill="#003366" opacity="0.6"/>
    <rect x="-18" y="-20" width="30" height="2" fill="#003366" opacity="0.6"/>
    <rect x="-18" y="-17" width="25" height="2" fill="#003366" opacity="0.6"/>
    <!-- Código de barras en la etiqueta -->
    <g transform="translate(-18, -13)">
      <rect x="0" y="0" width="1" height="8" fill="#000000"/>
      <rect x="2" y="0" width="2" height="8" fill="#000000"/>
      <rect x="6" y="0" width="1" height="8" fill="#000000"/>
      <rect x="9" y="0" width="1" height="8" fill="#000000"/>
      <rect x="12" y="0" width="3" height="8" fill="#000000"/>
      <rect x="17" y="0" width="1" height="8" fill="#000000"/>
      <rect x="20" y="0" width="2" height="8" fill="#000000"/>
      <rect x="24" y="0" width="1" height="8" fill="#000000"/>
    </g>
  </g>
  
  <!-- Logos de marcas -->
  <g transform="translate(50, 50)">
    <!-- Logo Zebra -->
    <rect x="0" y="0" width="40" height="15" fill="#000000" rx="2"/>
    <text x="20" y="10" font-family="Arial" font-size="8" font-weight="bold" fill="#ffffff" text-anchor="middle">ZEBRA</text>
    
    <!-- Logo Honeywell -->
    <rect x="0" y="20" width="40" height="15" fill="#ff6600" rx="2"/>
    <text x="20" y="30" font-family="Arial" font-size="7" font-weight="bold" fill="#ffffff" text-anchor="middle">HONEYWELL</text>
    
    <!-- Logo TSC -->
    <rect x="0" y="40" width="40" height="15" fill="#0066cc" rx="2"/>
    <text x="20" y="50" font-family="Arial" font-size="8" font-weight="bold" fill="#ffffff" text-anchor="middle">TSC</text>
  </g>
  
  <!-- Características técnicas -->
  <g transform="translate(220, 60)">
    <!-- Icono de velocidad -->
    <circle cx="10" cy="10" r="8" fill="none" stroke="#0066cc" stroke-width="2"/>
    <path d="M 6 10 L 10 6 L 14 10" stroke="#0066cc" stroke-width="2" fill="none" stroke-linecap="round"/>
    <text x="10" y="25" font-family="Arial" font-size="8" fill="#003366" text-anchor="middle">RÁPIDA</text>
    
    <!-- Icono de precisión -->
    <g transform="translate(0, 35)">
      <circle cx="10" cy="10" r="8" fill="none" stroke="#0066cc" stroke-width="2"/>
      <circle cx="10" cy="10" r="3" fill="#0066cc"/>
      <text x="10" y="25" font-family="Arial" font-size="8" fill="#003366" text-anchor="middle">PRECISA</text>
    </g>
    
    <!-- Icono de durabilidad -->
    <g transform="translate(0, 70)">
      <rect x="4" y="4" width="12" height="12" fill="none" stroke="#0066cc" stroke-width="2" rx="2"/>
      <path d="M 7 10 L 9 12 L 13 8" stroke="#0066cc" stroke-width="2" fill="none" stroke-linecap="round"/>
      <text x="10" y="25" font-family="Arial" font-size="8" fill="#003366" text-anchor="middle">DURABLE</text>
    </g>
  </g>
  
  <!-- Título -->
  <text x="150" y="220" font-family="Arial, sans-serif" font-size="12" font-weight="bold" fill="#003366" text-anchor="middle">
    Impresoras Térmicas Industriales
  </text>
  
  <!-- Subtítulo -->
  <text x="150" y="235" font-family="Arial, sans-serif" font-size="10" fill="#666666" text-anchor="middle">
    Zebra • Honeywell • TSC
  </text>
</svg>
